<svg width="535" height="407" viewBox="0 0 535 407" fill="none" xmlns="http://www.w3.org/2000/svg">
<path opacity="0.7" d="M1.704 14V4.228H6.03C7.64 4.228 8.634 5.222 8.634 6.748C8.634 8.218 7.738 8.75 6.94 8.82V8.904C7.738 8.932 8.984 9.548 8.984 11.186C8.984 12.768 7.906 14 6.464 14H1.704ZM3.286 9.674V12.642H6.002C6.814 12.642 7.318 12.194 7.318 11.396V10.92C7.318 10.122 6.814 9.674 6.002 9.674H3.286ZM3.286 5.586V8.358H5.736C6.506 8.358 6.968 7.938 6.968 7.196V6.748C6.968 6.006 6.506 5.586 5.736 5.586H3.286ZM12.5065 14H10.9805V6.72H12.5065V8.12H12.5765C12.7865 7.378 13.4165 6.72 14.5785 6.72H14.9845V8.19H14.3825C13.1785 8.19 12.5065 8.596 12.5065 9.352V14ZM19.2875 14.168C17.2155 14.168 15.9415 12.684 15.9415 10.36C15.9415 8.036 17.2155 6.552 19.2875 6.552C21.4295 6.552 22.5215 8.162 22.5215 10.178V10.752H17.5235V10.99C17.5235 12.11 18.2095 12.908 19.4415 12.908C20.3375 12.908 20.9395 12.488 21.3595 11.816L22.2555 12.698C21.7095 13.58 20.6455 14.168 19.2875 14.168ZM19.2875 7.742C18.2375 7.742 17.5235 8.526 17.5235 9.646V9.744H20.9115V9.604C20.9115 8.484 20.2955 7.742 19.2875 7.742ZM30.5588 14H29.7048C28.9068 14 28.4868 13.496 28.3888 12.782H28.3188C28.0388 13.692 27.2548 14.168 26.1908 14.168C24.6928 14.168 23.8388 13.314 23.8388 11.998C23.8388 10.556 24.9168 9.814 26.9468 9.814H28.2628V9.198C28.2628 8.316 27.7868 7.798 26.7648 7.798C25.9108 7.798 25.3928 8.218 25.0288 8.792L24.1188 7.966C24.5948 7.154 25.4488 6.552 26.8628 6.552C28.7388 6.552 29.7888 7.476 29.7888 9.1V12.754H30.5588V14ZM26.6248 13.006C27.5628 13.006 28.2628 12.558 28.2628 11.844V10.794H26.9748C25.9108 10.794 25.3928 11.144 25.3928 11.774V12.026C25.3928 12.67 25.8688 13.006 26.6248 13.006ZM32.2144 14V3.64H33.7404V9.996H33.8104L34.8184 8.694L36.5684 6.72H38.3464L35.7984 9.534L38.6544 14H36.8344L34.7484 10.528L33.7404 11.62V14H32.2144ZM50.0233 7.868C50.0233 10.696 48.1333 12.936 46.5233 14H44.4233C46.6353 12.39 47.9093 11.102 48.3853 9.002L48.2873 8.974C47.8813 9.744 47.2373 10.402 46.0193 10.402C44.3673 10.402 43.1493 9.226 43.1493 7.378C43.1493 5.418 44.5073 4.06 46.5793 4.06C48.7353 4.06 50.0233 5.53 50.0233 7.868ZM46.5793 9.128C47.7133 9.128 48.3853 8.498 48.3853 7.336V7.14C48.3853 5.978 47.7133 5.348 46.5793 5.348C45.4453 5.348 44.7733 5.978 44.7733 7.14V7.336C44.7733 8.498 45.4453 9.128 46.5793 9.128ZM55.1618 14.168C52.7258 14.168 51.6198 12.306 51.6198 9.114C51.6198 5.922 52.7258 4.06 55.1618 4.06C57.5978 4.06 58.7038 5.922 58.7038 9.114C58.7038 12.306 57.5978 14.168 55.1618 14.168ZM55.1618 12.824C56.5198 12.824 57.0238 11.676 57.0238 9.968V8.26C57.0238 6.552 56.5198 5.404 55.1618 5.404C53.8038 5.404 53.2998 6.552 53.2998 8.26V9.968C53.2998 11.676 53.8038 12.824 55.1618 12.824Z" fill="black"/>
<path d="M75.5 9H533.637" stroke="black" stroke-width="0.5" stroke-linecap="round" stroke-dasharray="0.1 4"/>
<path opacity="0.7" d="M1.704 208.5V198.728H6.03C7.64 198.728 8.634 199.722 8.634 201.248C8.634 202.718 7.738 203.25 6.94 203.32V203.404C7.738 203.432 8.984 204.048 8.984 205.686C8.984 207.268 7.906 208.5 6.464 208.5H1.704ZM3.286 204.174V207.142H6.002C6.814 207.142 7.318 206.694 7.318 205.896V205.42C7.318 204.622 6.814 204.174 6.002 204.174H3.286ZM3.286 200.086V202.858H5.736C6.506 202.858 6.968 202.438 6.968 201.696V201.248C6.968 200.506 6.506 200.086 5.736 200.086H3.286ZM12.5065 208.5H10.9805V201.22H12.5065V202.62H12.5765C12.7865 201.878 13.4165 201.22 14.5785 201.22H14.9845V202.69H14.3825C13.1785 202.69 12.5065 203.096 12.5065 203.852V208.5ZM19.2875 208.668C17.2155 208.668 15.9415 207.184 15.9415 204.86C15.9415 202.536 17.2155 201.052 19.2875 201.052C21.4295 201.052 22.5215 202.662 22.5215 204.678V205.252H17.5235V205.49C17.5235 206.61 18.2095 207.408 19.4415 207.408C20.3375 207.408 20.9395 206.988 21.3595 206.316L22.2555 207.198C21.7095 208.08 20.6455 208.668 19.2875 208.668ZM19.2875 202.242C18.2375 202.242 17.5235 203.026 17.5235 204.146V204.244H20.9115V204.104C20.9115 202.984 20.2955 202.242 19.2875 202.242ZM30.5588 208.5H29.7048C28.9068 208.5 28.4868 207.996 28.3888 207.282H28.3188C28.0388 208.192 27.2548 208.668 26.1908 208.668C24.6928 208.668 23.8388 207.814 23.8388 206.498C23.8388 205.056 24.9168 204.314 26.9468 204.314H28.2628V203.698C28.2628 202.816 27.7868 202.298 26.7648 202.298C25.9108 202.298 25.3928 202.718 25.0288 203.292L24.1188 202.466C24.5948 201.654 25.4488 201.052 26.8628 201.052C28.7388 201.052 29.7888 201.976 29.7888 203.6V207.254H30.5588V208.5ZM26.6248 207.506C27.5628 207.506 28.2628 207.058 28.2628 206.344V205.294H26.9748C25.9108 205.294 25.3928 205.644 25.3928 206.274V206.526C25.3928 207.17 25.8688 207.506 26.6248 207.506ZM32.2144 208.5V198.14H33.7404V204.496H33.8104L34.8184 203.194L36.5684 201.22H38.3464L35.7984 204.034L38.6544 208.5H36.8344L34.7484 205.028L33.7404 206.12V208.5H32.2144ZM46.6073 208.668C44.3393 208.668 43.1073 207.45 43.1073 205.84C43.1073 204.538 43.8913 203.754 45.0673 203.432V203.32C44.0733 202.97 43.4013 202.186 43.4013 201.066C43.4013 199.568 44.5773 198.56 46.6073 198.56C48.6373 198.56 49.8133 199.568 49.8133 201.066C49.8133 202.186 49.1413 202.97 48.1473 203.32V203.432C49.3233 203.754 50.1073 204.538 50.1073 205.84C50.1073 207.45 48.8753 208.668 46.6073 208.668ZM46.6073 207.394C47.7833 207.394 48.4553 206.82 48.4553 205.854V205.574C48.4553 204.608 47.7833 204.034 46.6073 204.034C45.4313 204.034 44.7593 204.608 44.7593 205.574V205.854C44.7593 206.82 45.4313 207.394 46.6073 207.394ZM46.6073 202.816C47.6853 202.816 48.2733 202.326 48.2733 201.444V201.206C48.2733 200.324 47.6853 199.834 46.6073 199.834C45.5293 199.834 44.9413 200.324 44.9413 201.206V201.444C44.9413 202.326 45.5293 202.816 46.6073 202.816ZM55.1618 208.668C52.7258 208.668 51.6198 206.806 51.6198 203.614C51.6198 200.422 52.7258 198.56 55.1618 198.56C57.5978 198.56 58.7038 200.422 58.7038 203.614C58.7038 206.806 57.5978 208.668 55.1618 208.668ZM55.1618 207.324C56.5198 207.324 57.0238 206.176 57.0238 204.468V202.76C57.0238 201.052 56.5198 199.904 55.1618 199.904C53.8038 199.904 53.2998 201.052 53.2998 202.76V204.468C53.2998 206.176 53.8038 207.324 55.1618 207.324Z" fill="black"/>
<path d="M75.5 203.5H533.637" stroke="black" stroke-width="0.5" stroke-linecap="round" stroke-dasharray="0.1 4"/>
<path opacity="0.7" d="M1.704 403V393.228H6.03C7.64 393.228 8.634 394.222 8.634 395.748C8.634 397.218 7.738 397.75 6.94 397.82V397.904C7.738 397.932 8.984 398.548 8.984 400.186C8.984 401.768 7.906 403 6.464 403H1.704ZM3.286 398.674V401.642H6.002C6.814 401.642 7.318 401.194 7.318 400.396V399.92C7.318 399.122 6.814 398.674 6.002 398.674H3.286ZM3.286 394.586V397.358H5.736C6.506 397.358 6.968 396.938 6.968 396.196V395.748C6.968 395.006 6.506 394.586 5.736 394.586H3.286ZM12.5065 403H10.9805V395.72H12.5065V397.12H12.5765C12.7865 396.378 13.4165 395.72 14.5785 395.72H14.9845V397.19H14.3825C13.1785 397.19 12.5065 397.596 12.5065 398.352V403ZM19.2875 403.168C17.2155 403.168 15.9415 401.684 15.9415 399.36C15.9415 397.036 17.2155 395.552 19.2875 395.552C21.4295 395.552 22.5215 397.162 22.5215 399.178V399.752H17.5235V399.99C17.5235 401.11 18.2095 401.908 19.4415 401.908C20.3375 401.908 20.9395 401.488 21.3595 400.816L22.2555 401.698C21.7095 402.58 20.6455 403.168 19.2875 403.168ZM19.2875 396.742C18.2375 396.742 17.5235 397.526 17.5235 398.646V398.744H20.9115V398.604C20.9115 397.484 20.2955 396.742 19.2875 396.742ZM30.5588 403H29.7048C28.9068 403 28.4868 402.496 28.3888 401.782H28.3188C28.0388 402.692 27.2548 403.168 26.1908 403.168C24.6928 403.168 23.8388 402.314 23.8388 400.998C23.8388 399.556 24.9168 398.814 26.9468 398.814H28.2628V398.198C28.2628 397.316 27.7868 396.798 26.7648 396.798C25.9108 396.798 25.3928 397.218 25.0288 397.792L24.1188 396.966C24.5948 396.154 25.4488 395.552 26.8628 395.552C28.7388 395.552 29.7888 396.476 29.7888 398.1V401.754H30.5588V403ZM26.6248 402.006C27.5628 402.006 28.2628 401.558 28.2628 400.844V399.794H26.9748C25.9108 399.794 25.3928 400.144 25.3928 400.774V401.026C25.3928 401.67 25.8688 402.006 26.6248 402.006ZM32.2144 403V392.64H33.7404V398.996H33.8104L34.8184 397.694L36.5684 395.72H38.3464L35.7984 398.534L38.6544 403H36.8344L34.7484 399.528L33.7404 400.62V403H32.2144ZM46.4673 403H44.8013L48.3433 394.53H44.6473V396.336H43.2893V393.228H49.9113V394.6L46.4673 403ZM58.0738 393.228V394.6H53.7338L53.4818 398.058H53.5798C54.0138 397.288 54.5038 396.784 55.6238 396.784C57.3038 396.784 58.5778 397.918 58.5778 399.836C58.5778 401.782 57.3038 403.168 55.0918 403.168C53.3558 403.168 52.4458 402.314 51.8578 401.418L53.0058 400.508C53.4818 401.278 54.0278 401.838 55.1198 401.838C56.2678 401.838 56.9258 401.166 56.9258 400.046V399.878C56.9258 398.758 56.2678 398.086 55.1198 398.086C54.2798 398.086 53.8178 398.464 53.4678 398.856L52.1658 398.674L52.5298 393.228H58.0738Z" fill="black"/>
<path d="M75.5 398H533.637" stroke="black" stroke-width="0.5" stroke-linecap="round" stroke-dasharray="0.1 4"/>
</svg>
