<svg width="566" height="439" viewBox="0 0 566 439" fill="none" xmlns="http://www.w3.org/2000/svg">
<path d="M0 16C0 7.16344 7.16344 0 16 0H550C558.837 0 566 7.16344 566 16V423C566 431.837 558.837 439 550 439H16C7.16346 439 0 431.837 0 423V16Z" fill="#F7F7F7"/>
<path opacity="0.7" d="M17.204 30V20.228H21.53C23.14 20.228 24.134 21.222 24.134 22.748C24.134 24.218 23.238 24.75 22.44 24.82V24.904C23.238 24.932 24.484 25.548 24.484 27.186C24.484 28.768 23.406 30 21.964 30H17.204ZM18.786 25.674V28.642H21.502C22.314 28.642 22.818 28.194 22.818 27.396V26.92C22.818 26.122 22.314 25.674 21.502 25.674H18.786ZM18.786 21.586V24.358H21.236C22.006 24.358 22.468 23.938 22.468 23.196V22.748C22.468 22.006 22.006 21.586 21.236 21.586H18.786ZM28.0065 30H26.4805V22.72H28.0065V24.12H28.0765C28.2865 23.378 28.9165 22.72 30.0785 22.72H30.4845V24.19H29.8825C28.6785 24.19 28.0065 24.596 28.0065 25.352V30ZM34.7875 30.168C32.7155 30.168 31.4415 28.684 31.4415 26.36C31.4415 24.036 32.7155 22.552 34.7875 22.552C36.9295 22.552 38.0215 24.162 38.0215 26.178V26.752H33.0235V26.99C33.0235 28.11 33.7095 28.908 34.9415 28.908C35.8375 28.908 36.4395 28.488 36.8595 27.816L37.7555 28.698C37.2095 29.58 36.1455 30.168 34.7875 30.168ZM34.7875 23.742C33.7375 23.742 33.0235 24.526 33.0235 25.646V25.744H36.4115V25.604C36.4115 24.484 35.7955 23.742 34.7875 23.742ZM46.0588 30H45.2048C44.4068 30 43.9868 29.496 43.8888 28.782H43.8188C43.5388 29.692 42.7548 30.168 41.6908 30.168C40.1928 30.168 39.3388 29.314 39.3388 27.998C39.3388 26.556 40.4168 25.814 42.4468 25.814H43.7628V25.198C43.7628 24.316 43.2868 23.798 42.2648 23.798C41.4108 23.798 40.8928 24.218 40.5288 24.792L39.6188 23.966C40.0948 23.154 40.9488 22.552 42.3628 22.552C44.2388 22.552 45.2888 23.476 45.2888 25.1V28.754H46.0588V30ZM42.1248 29.006C43.0628 29.006 43.7628 28.558 43.7628 27.844V26.794H42.4748C41.4108 26.794 40.8928 27.144 40.8928 27.774V28.026C40.8928 28.67 41.3688 29.006 42.1248 29.006ZM47.7144 30V19.64H49.2404V25.996H49.3104L50.3184 24.694L52.0684 22.72H53.8464L51.2984 25.534L54.1544 30H52.3344L50.2484 26.528L49.2404 27.62V30H47.7144ZM65.5233 23.868C65.5233 26.696 63.6333 28.936 62.0233 30H59.9233C62.1353 28.39 63.4093 27.102 63.8853 25.002L63.7873 24.974C63.3813 25.744 62.7373 26.402 61.5193 26.402C59.8673 26.402 58.6493 25.226 58.6493 23.378C58.6493 21.418 60.0073 20.06 62.0793 20.06C64.2353 20.06 65.5233 21.53 65.5233 23.868ZM62.0793 25.128C63.2133 25.128 63.8853 24.498 63.8853 23.336V23.14C63.8853 21.978 63.2133 21.348 62.0793 21.348C60.9453 21.348 60.2733 21.978 60.2733 23.14V23.336C60.2733 24.498 60.9453 25.128 62.0793 25.128ZM70.6618 30.168C68.2258 30.168 67.1198 28.306 67.1198 25.114C67.1198 21.922 68.2258 20.06 70.6618 20.06C73.0978 20.06 74.2038 21.922 74.2038 25.114C74.2038 28.306 73.0978 30.168 70.6618 30.168ZM70.6618 28.824C72.0198 28.824 72.5238 27.676 72.5238 25.968V24.26C72.5238 22.552 72.0198 21.404 70.6618 21.404C69.3038 21.404 68.7998 22.552 68.7998 24.26V25.968C68.7998 27.676 69.3038 28.824 70.6618 28.824Z" fill="black"/>
<path d="M91 25H549.137" stroke="black" stroke-width="0.5" stroke-linecap="round" stroke-dasharray="0.1 4"/>
<path opacity="0.7" d="M17.204 224.5V214.728H21.53C23.14 214.728 24.134 215.722 24.134 217.248C24.134 218.718 23.238 219.25 22.44 219.32V219.404C23.238 219.432 24.484 220.048 24.484 221.686C24.484 223.268 23.406 224.5 21.964 224.5H17.204ZM18.786 220.174V223.142H21.502C22.314 223.142 22.818 222.694 22.818 221.896V221.42C22.818 220.622 22.314 220.174 21.502 220.174H18.786ZM18.786 216.086V218.858H21.236C22.006 218.858 22.468 218.438 22.468 217.696V217.248C22.468 216.506 22.006 216.086 21.236 216.086H18.786ZM28.0065 224.5H26.4805V217.22H28.0065V218.62H28.0765C28.2865 217.878 28.9165 217.22 30.0785 217.22H30.4845V218.69H29.8825C28.6785 218.69 28.0065 219.096 28.0065 219.852V224.5ZM34.7875 224.668C32.7155 224.668 31.4415 223.184 31.4415 220.86C31.4415 218.536 32.7155 217.052 34.7875 217.052C36.9295 217.052 38.0215 218.662 38.0215 220.678V221.252H33.0235V221.49C33.0235 222.61 33.7095 223.408 34.9415 223.408C35.8375 223.408 36.4395 222.988 36.8595 222.316L37.7555 223.198C37.2095 224.08 36.1455 224.668 34.7875 224.668ZM34.7875 218.242C33.7375 218.242 33.0235 219.026 33.0235 220.146V220.244H36.4115V220.104C36.4115 218.984 35.7955 218.242 34.7875 218.242ZM46.0588 224.5H45.2048C44.4068 224.5 43.9868 223.996 43.8888 223.282H43.8188C43.5388 224.192 42.7548 224.668 41.6908 224.668C40.1928 224.668 39.3388 223.814 39.3388 222.498C39.3388 221.056 40.4168 220.314 42.4468 220.314H43.7628V219.698C43.7628 218.816 43.2868 218.298 42.2648 218.298C41.4108 218.298 40.8928 218.718 40.5288 219.292L39.6188 218.466C40.0948 217.654 40.9488 217.052 42.3628 217.052C44.2388 217.052 45.2888 217.976 45.2888 219.6V223.254H46.0588V224.5ZM42.1248 223.506C43.0628 223.506 43.7628 223.058 43.7628 222.344V221.294H42.4748C41.4108 221.294 40.8928 221.644 40.8928 222.274V222.526C40.8928 223.17 41.3688 223.506 42.1248 223.506ZM47.7144 224.5V214.14H49.2404V220.496H49.3104L50.3184 219.194L52.0684 217.22H53.8464L51.2984 220.034L54.1544 224.5H52.3344L50.2484 221.028L49.2404 222.12V224.5H47.7144ZM62.1073 224.668C59.8393 224.668 58.6073 223.45 58.6073 221.84C58.6073 220.538 59.3913 219.754 60.5673 219.432V219.32C59.5733 218.97 58.9013 218.186 58.9013 217.066C58.9013 215.568 60.0773 214.56 62.1073 214.56C64.1373 214.56 65.3133 215.568 65.3133 217.066C65.3133 218.186 64.6413 218.97 63.6473 219.32V219.432C64.8233 219.754 65.6073 220.538 65.6073 221.84C65.6073 223.45 64.3753 224.668 62.1073 224.668ZM62.1073 223.394C63.2833 223.394 63.9553 222.82 63.9553 221.854V221.574C63.9553 220.608 63.2833 220.034 62.1073 220.034C60.9313 220.034 60.2593 220.608 60.2593 221.574V221.854C60.2593 222.82 60.9313 223.394 62.1073 223.394ZM62.1073 218.816C63.1853 218.816 63.7733 218.326 63.7733 217.444V217.206C63.7733 216.324 63.1853 215.834 62.1073 215.834C61.0293 215.834 60.4413 216.324 60.4413 217.206V217.444C60.4413 218.326 61.0293 218.816 62.1073 218.816ZM70.6618 224.668C68.2258 224.668 67.1198 222.806 67.1198 219.614C67.1198 216.422 68.2258 214.56 70.6618 214.56C73.0978 214.56 74.2038 216.422 74.2038 219.614C74.2038 222.806 73.0978 224.668 70.6618 224.668ZM70.6618 223.324C72.0198 223.324 72.5238 222.176 72.5238 220.468V218.76C72.5238 217.052 72.0198 215.904 70.6618 215.904C69.3038 215.904 68.7998 217.052 68.7998 218.76V220.468C68.7998 222.176 69.3038 223.324 70.6618 223.324Z" fill="black"/>
<path d="M91 219.5H549.137" stroke="black" stroke-width="0.5" stroke-linecap="round" stroke-dasharray="0.1 4"/>
<path opacity="0.7" d="M17.204 419V409.228H21.53C23.14 409.228 24.134 410.222 24.134 411.748C24.134 413.218 23.238 413.75 22.44 413.82V413.904C23.238 413.932 24.484 414.548 24.484 416.186C24.484 417.768 23.406 419 21.964 419H17.204ZM18.786 414.674V417.642H21.502C22.314 417.642 22.818 417.194 22.818 416.396V415.92C22.818 415.122 22.314 414.674 21.502 414.674H18.786ZM18.786 410.586V413.358H21.236C22.006 413.358 22.468 412.938 22.468 412.196V411.748C22.468 411.006 22.006 410.586 21.236 410.586H18.786ZM28.0065 419H26.4805V411.72H28.0065V413.12H28.0765C28.2865 412.378 28.9165 411.72 30.0785 411.72H30.4845V413.19H29.8825C28.6785 413.19 28.0065 413.596 28.0065 414.352V419ZM34.7875 419.168C32.7155 419.168 31.4415 417.684 31.4415 415.36C31.4415 413.036 32.7155 411.552 34.7875 411.552C36.9295 411.552 38.0215 413.162 38.0215 415.178V415.752H33.0235V415.99C33.0235 417.11 33.7095 417.908 34.9415 417.908C35.8375 417.908 36.4395 417.488 36.8595 416.816L37.7555 417.698C37.2095 418.58 36.1455 419.168 34.7875 419.168ZM34.7875 412.742C33.7375 412.742 33.0235 413.526 33.0235 414.646V414.744H36.4115V414.604C36.4115 413.484 35.7955 412.742 34.7875 412.742ZM46.0588 419H45.2048C44.4068 419 43.9868 418.496 43.8888 417.782H43.8188C43.5388 418.692 42.7548 419.168 41.6908 419.168C40.1928 419.168 39.3388 418.314 39.3388 416.998C39.3388 415.556 40.4168 414.814 42.4468 414.814H43.7628V414.198C43.7628 413.316 43.2868 412.798 42.2648 412.798C41.4108 412.798 40.8928 413.218 40.5288 413.792L39.6188 412.966C40.0948 412.154 40.9488 411.552 42.3628 411.552C44.2388 411.552 45.2888 412.476 45.2888 414.1V417.754H46.0588V419ZM42.1248 418.006C43.0628 418.006 43.7628 417.558 43.7628 416.844V415.794H42.4748C41.4108 415.794 40.8928 416.144 40.8928 416.774V417.026C40.8928 417.67 41.3688 418.006 42.1248 418.006ZM47.7144 419V408.64H49.2404V414.996H49.3104L50.3184 413.694L52.0684 411.72H53.8464L51.2984 414.534L54.1544 419H52.3344L50.2484 415.528L49.2404 416.62V419H47.7144ZM61.9673 419H60.3013L63.8433 410.53H60.1473V412.336H58.7893V409.228H65.4113V410.6L61.9673 419ZM73.5738 409.228V410.6H69.2338L68.9818 414.058H69.0798C69.5138 413.288 70.0038 412.784 71.1238 412.784C72.8038 412.784 74.0778 413.918 74.0778 415.836C74.0778 417.782 72.8038 419.168 70.5918 419.168C68.8558 419.168 67.9458 418.314 67.3578 417.418L68.5058 416.508C68.9818 417.278 69.5278 417.838 70.6198 417.838C71.7678 417.838 72.4258 417.166 72.4258 416.046V415.878C72.4258 414.758 71.7678 414.086 70.6198 414.086C69.7798 414.086 69.3178 414.464 68.9678 414.856L67.6658 414.674L68.0298 409.228H73.5738Z" fill="black"/>
<path d="M91 414H549.137" stroke="black" stroke-width="0.5" stroke-linecap="round" stroke-dasharray="0.1 4"/>
<path d="M82 84C391.784 84 172.864 306 549 306" stroke="#5773FF" stroke-width="4" stroke-linecap="round"/>
</svg>
